<svg width="25" height="24" viewBox="0 0 25 24" fill="none" xmlns="http://www.w3.org/2000/svg">
<path d="M12.0307 21L11.4003 21.7763L12.6608 21.7765L12.0307 21ZM5.0332 10L6.0332 10L5.0332 10ZM12.0307 21C12.6611 20.2237 12.6612 20.2238 12.6613 20.2239C12.6613 20.2239 12.6614 20.224 12.6614 20.224C12.6615 20.224 12.6614 20.224 12.6612 20.2238C12.6608 20.2235 12.66 20.2229 12.6588 20.2219C12.6564 20.2199 12.6523 20.2166 12.6467 20.2119C12.6354 20.2026 12.6177 20.188 12.5941 20.1682C12.5469 20.1287 12.476 20.0687 12.3848 19.9896C12.2023 19.8315 11.9389 19.5977 11.6217 19.3C10.986 18.7032 10.1406 17.8558 9.29804 16.8515C7.56719 14.7883 6.03318 12.2779 6.0332 10L5.0332 10L4.0332 9.99999C4.03317 13.0399 5.99791 16.0295 7.76581 18.1369C8.6726 19.2178 9.57659 20.1233 10.2529 20.7582C10.5917 21.0762 10.8751 21.3279 11.0752 21.5013C11.1754 21.588 11.2548 21.6553 11.3101 21.7016C11.3378 21.7248 11.3594 21.7427 11.3746 21.7552C11.3822 21.7614 11.3881 21.7663 11.3924 21.7699C11.3946 21.7716 11.3963 21.7731 11.3976 21.7741C11.3983 21.7747 11.3989 21.7751 11.3993 21.7755C11.3995 21.7757 11.3998 21.7759 11.3999 21.776C11.4001 21.7761 11.4003 21.7763 12.0307 21ZM12.0307 21C12.6608 21.7765 12.661 21.7764 12.6612 21.7762C12.6613 21.7761 12.6616 21.7759 12.6618 21.7757C12.6623 21.7753 12.6628 21.7749 12.6635 21.7744C12.6648 21.7733 12.6665 21.7719 12.6687 21.7701C12.673 21.7666 12.679 21.7617 12.6866 21.7554C12.7018 21.7429 12.7234 21.725 12.7511 21.7018C12.8064 21.6555 12.8859 21.5883 12.9861 21.5015C13.1864 21.3281 13.4699 21.0765 13.809 20.7584C14.4858 20.1236 15.3904 19.218 16.2978 18.1371C18.0669 16.0299 20.0332 13.0402 20.0332 10H19.0332H18.0332C18.0332 12.2776 16.4982 14.7879 14.7661 16.8512C13.9229 17.8556 13.0769 18.703 12.4407 19.2997C12.1233 19.5975 11.8597 19.8313 11.6771 19.9894C11.5858 20.0684 11.5148 20.1285 11.4676 20.168C11.444 20.1877 11.4263 20.2024 11.415 20.2117C11.4093 20.2163 11.4053 20.2197 11.4029 20.2217C11.4016 20.2226 11.4008 20.2233 11.4005 20.2236C11.4003 20.2238 11.4002 20.2238 11.4002 20.2238C11.4002 20.2238 11.4003 20.2237 11.4003 20.2237C11.4004 20.2236 11.4006 20.2235 12.0307 21ZM19.0332 10H20.0332C20.0332 5.62011 16.6 2 12.0307 2V3V4C15.4664 4 18.0332 6.69552 18.0332 10H19.0332ZM12.0307 3V2C7.46027 2 4.03325 5.62359 4.0332 9.99999L5.0332 10L6.0332 10C6.03324 6.69664 8.59609 4 12.0307 4V3Z" fill="#1C1B1F"/>
<rect x="10.0332" y="8" width="4" height="4" rx="2" fill="#1C1B1F"/>
</svg>
