<svg width="25" height="25" viewBox="0 0 25 25" fill="none" xmlns="http://www.w3.org/2000/svg">
<path d="M4.09277 16.3066L9.09277 19.3066L14.0928 16.5566L19.0928 19.3066V8.30664L14.0928 5.30664L9.09277 7.30664L4.09277 5.30664V16.3066Z" stroke="#A09CAB" style="stroke:#A09CAB;stroke:color(display-p3 0.6275 0.6118 0.6706);stroke-opacity:1;" stroke-width="2" stroke-linecap="round" stroke-linejoin="round"/>
<path d="M10.0928 7.80664C10.0928 7.25436 9.64506 6.80664 9.09277 6.80664C8.54049 6.80664 8.09277 7.25436 8.09277 7.80664H9.09277H10.0928ZM8.09277 17.8066V18.8066H10.0928V17.8066H9.09277H8.09277ZM9.09277 7.80664H8.09277V17.8066H9.09277H10.0928V7.80664H9.09277Z" fill="#A09CAB" style="fill:#A09CAB;fill:color(display-p3 0.6275 0.6118 0.6706);fill-opacity:1;"/>
<path d="M15.0928 6.30664C15.0928 5.75436 14.6451 5.30664 14.0928 5.30664C13.5405 5.30664 13.0928 5.75436 13.0928 6.30664H14.0928H15.0928ZM13.0928 16.3066V17.3066H15.0928V16.3066H14.0928H13.0928ZM14.0928 6.30664H13.0928V16.3066H14.0928H15.0928V6.30664H14.0928Z" fill="#A09CAB" style="fill:#A09CAB;fill:color(display-p3 0.6275 0.6118 0.6706);fill-opacity:1;"/>
</svg>
