<svg width="25" height="25" viewBox="0 0 25 25" fill="none" xmlns="http://www.w3.org/2000/svg">
<path d="M17.1866 20.9734C16.2066 21.9234 15.1366 21.7734 14.1066 21.3234C13.0166 20.8634 12.0166 20.8434 10.8666 21.3234C9.42664 21.9434 8.66664 21.7634 7.80664 20.9734C2.92664 15.9434 3.64664 8.28336 9.18664 8.00336C10.5366 8.07336 11.4766 8.74336 12.2666 8.80336C13.4466 8.56336 14.5766 7.87336 15.8366 7.96336C17.3466 8.08336 18.4866 8.68336 19.2366 9.76336C16.1166 11.6334 16.8566 15.7434 19.7166 16.8934C19.1466 18.3934 18.4066 19.8834 17.1766 20.9834L17.1866 20.9734ZM12.1666 7.94336C12.0166 5.71336 13.8266 3.87336 15.9066 3.69336C16.1966 6.27336 13.5666 8.19336 12.1666 7.94336Z" fill="black"/>
</svg>
