<svg width="25" height="24" viewBox="0 0 25 24" fill="none" xmlns="http://www.w3.org/2000/svg">
<path d="M17.933 20.28C16.953 21.23 15.883 21.08 14.853 20.63C13.763 20.17 12.763 20.15 11.613 20.63C10.173 21.25 9.41298 21.07 8.55298 20.28C3.67298 15.25 4.39298 7.59 9.93298 7.31C11.283 7.38 12.223 8.05 13.013 8.11C14.193 7.87 15.323 7.18 16.583 7.27C18.093 7.39 19.233 7.99 19.983 9.07C16.863 10.94 17.603 15.05 20.463 16.2C19.893 17.7 19.153 19.19 17.923 20.29L17.933 20.28ZM12.913 7.25C12.763 5.02 14.573 3.18 16.653 3C16.943 5.58 14.313 7.5 12.913 7.25Z" fill="black" style="fill:black;fill-opacity:1;"/>
</svg>
