<svg width="24" height="24" viewBox="0 0 24 24" fill="none" xmlns="http://www.w3.org/2000/svg">
<path d="M6 7.80586V20.5059L11.2259 17.8929C11.5088 17.7515 11.6502 17.6808 11.798 17.656C11.9289 17.634 12.0627 17.6383 12.1919 17.6687C12.3378 17.7029 12.4744 17.7826 12.7476 17.942L12.7476 17.942L18 21.0059V7.80586C18 6.1257 18 5.28562 17.673 4.64389C17.3854 4.0794 16.9265 3.62046 16.362 3.33284C15.7202 3.00586 14.8802 3.00586 13.2 3.00586H10.8C9.11984 3.00586 8.27976 3.00586 7.63803 3.33284C7.07354 3.62046 6.6146 4.0794 6.32698 4.64389C6 5.28562 6 6.1257 6 7.80586Z" stroke="#1C1B1F" stroke-width="2"/>
</svg>
