<svg width="25" height="24" viewBox="0 0 25 24" fill="none" xmlns="http://www.w3.org/2000/svg">
<rect width="24" height="24" transform="translate(0.70166)" fill="white"/>
<path d="M6.70166 7.8V20.5L11.9275 17.8871C12.2104 17.7456 12.3519 17.6749 12.4997 17.6501C12.6305 17.6282 12.7644 17.6325 12.8936 17.6628C13.0395 17.6971 13.1761 17.7767 13.4493 17.9361L13.4493 17.9361L18.7017 21V7.8C18.7017 6.11984 18.7017 5.27976 18.3747 4.63803C18.0871 4.07354 17.6281 3.6146 17.0636 3.32698C16.4219 3 15.5818 3 13.9017 3H11.5017C9.8215 3 8.98142 3 8.33969 3.32698C7.7752 3.6146 7.31626 4.07354 7.02864 4.63803C6.70166 5.27976 6.70166 6.11984 6.70166 7.8Z" fill="#1C1B1F" stroke="#1C1B1F" stroke-width="2"/>
</svg>
