<svg width="17" height="17" viewBox="0 0 17 17" fill="none" xmlns="http://www.w3.org/2000/svg">
<path d="M10.2007 2.97363H5.93401C4.8139 2.97363 4.25385 2.97363 3.82603 3.19162C3.4497 3.38337 3.14374 3.68933 2.952 4.06565C2.73401 4.49347 2.73401 5.05353 2.73401 6.17363V10.4403C2.73401 11.5604 2.73401 12.1205 2.952 12.5483C3.14374 12.9246 3.4497 13.2306 3.82603 13.4223C4.25385 13.6403 4.8139 13.6403 5.93401 13.6403H10.2007C11.3208 13.6403 11.8808 13.6403 12.3087 13.4223C12.685 13.2306 12.9909 12.9246 13.1827 12.5483C13.4007 12.1205 13.4007 11.5604 13.4007 10.4403V6.17363C13.4007 5.05353 13.4007 4.49347 13.1827 4.06565C12.9909 3.68933 12.685 3.38337 12.3087 3.19162C11.8808 2.97363 11.3208 2.97363 10.2007 2.97363Z" stroke="white" style="stroke:white;stroke-opacity:1;" stroke-width="1.33333"/>
<path d="M4.06738 6.30664H12.0674" stroke="white" style="stroke:white;stroke-opacity:1;" stroke-width="1.33333" stroke-linecap="square" stroke-linejoin="round"/>
</svg>
