<svg width="24" height="24" viewBox="0 0 24 24" fill="none" xmlns="http://www.w3.org/2000/svg">
<path d="M21 14.2V9.2128C21 8.08406 21 7.51969 20.85 7.06339C20.5524 6.15781 19.8422 5.44755 18.9366 5.14995C18.4803 5 17.9159 5 16.7872 5C16.7059 5 16.6652 5 16.6264 4.99385C16.5499 4.98175 16.4772 4.95203 16.4142 4.90706C16.3822 4.88423 16.3532 4.85573 16.2951 4.79874L16.2951 4.79872L15.398 3.91733L15.398 3.91731C15.0533 3.57865 14.8809 3.40932 14.6806 3.28828C14.503 3.18096 14.3098 3.10193 14.1079 3.05403C13.8802 3 13.6386 3 13.1554 3H10.8446C10.3614 3 10.1198 3 9.89207 3.05403C9.69018 3.10193 9.49697 3.18096 9.31939 3.28828C9.11909 3.40932 8.94674 3.57865 8.60202 3.91732L7.70487 4.79872L7.70486 4.79873C7.64685 4.85573 7.61784 4.88423 7.58583 4.90706C7.52278 4.95203 7.45014 4.98175 7.37364 4.99385C7.3348 5 7.29414 5 7.2128 5C6.08406 5 5.51969 5 5.06339 5.14995C4.15781 5.44755 3.44755 6.15781 3.14995 7.06339C3 7.51969 3 8.08406 3 9.2128V14.2C3 15.8802 3 16.7202 3.32698 17.362C3.6146 17.9265 4.07354 18.3854 4.63803 18.673C5.27976 19 6.11984 19 7.8 19H16.2C17.8802 19 18.7202 19 19.362 18.673C19.9265 18.3854 20.3854 17.9265 20.673 17.362C21 16.7202 21 15.8802 21 14.2Z" stroke="#1C1B1F" stroke-width="2" stroke-linecap="round"/>
<circle cx="12" cy="11.5" r="3" stroke="#1C1B1F" stroke-width="2"/>
</svg>
