<svg width="25" height="24" viewBox="0 0 25 24" fill="none" xmlns="http://www.w3.org/2000/svg">
<mask id="mask0_13267_6587" style="mask-type:alpha" maskUnits="userSpaceOnUse" x="0" y="0" width="25" height="24">
<rect x="0.143555" width="24" height="24" fill="#D9D9D9"/>
</mask>
<g mask="url(#mask0_13267_6587)">
<path d="M12.1436 18.2752L7.99357 20.7752C7.81024 20.8919 7.61857 20.9419 7.41857 20.9252C7.21857 20.9085 7.04357 20.8419 6.89357 20.7252C6.74357 20.6085 6.6269 20.4627 6.54357 20.2877C6.46024 20.1127 6.44357 19.9169 6.49357 19.7002L7.59357 14.9752L3.91857 11.8002C3.7519 11.6502 3.64774 11.4794 3.60607 11.2877C3.5644 11.096 3.5769 10.9085 3.64357 10.7252C3.71024 10.5419 3.81024 10.3919 3.94357 10.2752C4.0769 10.1585 4.26024 10.0835 4.49357 10.0502L9.34357 9.6252L11.2186 5.1752C11.3019 4.9752 11.4311 4.8252 11.6061 4.7252C11.7811 4.6252 11.9602 4.5752 12.1436 4.5752C12.3269 4.5752 12.5061 4.6252 12.6811 4.7252C12.8561 4.8252 12.9852 4.9752 13.0686 5.1752L14.9436 9.6252L19.7936 10.0502C20.0269 10.0835 20.2102 10.1585 20.3436 10.2752C20.4769 10.3919 20.5769 10.5419 20.6436 10.7252C20.7102 10.9085 20.7227 11.096 20.6811 11.2877C20.6394 11.4794 20.5352 11.6502 20.3686 11.8002L16.6936 14.9752L17.7936 19.7002C17.8436 19.9169 17.8269 20.1127 17.7436 20.2877C17.6602 20.4627 17.5436 20.6085 17.3936 20.7252C17.2436 20.8419 17.0686 20.9085 16.8686 20.9252C16.6686 20.9419 16.4769 20.8919 16.2936 20.7752L12.1436 18.2752Z" fill="#1C1B1F"/>
</g>
</svg>
