<svg width="25" height="25" viewBox="0 0 25 25" fill="none" xmlns="http://www.w3.org/2000/svg">
<path d="M12.1368 22.0684C10.5949 22.0687 9.07675 21.6887 7.71681 20.9621C6.35688 20.2355 5.19715 19.1847 4.34038 17.9028C3.4836 16.6209 2.95623 15.1474 2.80498 13.613C2.65373 12.0786 2.88328 10.5305 3.47329 9.10597C4.06329 7.68145 4.99554 6.42444 6.18743 5.4463C7.37933 4.46817 8.79408 3.7991 10.3063 3.49839C11.8186 3.19767 13.3817 3.27459 14.8571 3.72233C16.3326 4.17007 17.6748 4.9748 18.7649 6.06523C18.8698 6.16975 18.953 6.29394 19.0098 6.43069C19.0666 6.56743 19.0958 6.71404 19.0958 6.86211C19.0958 7.01018 19.0666 7.15679 19.0098 7.29353C18.953 7.43028 18.8698 7.55447 18.7649 7.65899C18.5514 7.86631 18.2656 7.98228 17.968 7.98228C17.6705 7.98228 17.3846 7.86631 17.1711 7.65899C16.5128 6.99379 15.7285 6.46634 14.8642 6.1074C13.9998 5.74847 13.0727 5.56522 12.1368 5.56836C10.7759 5.56931 9.4437 5.96 8.29783 6.69421C7.15197 7.42842 6.24035 8.47544 5.67078 9.71142C5.10122 10.9474 4.89755 12.3207 5.08385 13.6688C5.27016 15.0168 5.83865 16.2834 6.72208 17.3186C7.60552 18.3538 8.76694 19.1143 10.069 19.5102C11.371 19.9061 12.7592 19.9208 14.0694 19.5527C15.3795 19.1845 16.5568 18.4488 17.4621 17.4326C18.3673 16.4164 18.9625 15.1622 19.1774 13.8184H12.1368C11.8384 13.8184 11.5523 13.6998 11.3413 13.4889C11.1303 13.2779 11.0118 12.9917 11.0118 12.6934C11.0118 12.395 11.1303 12.1088 11.3413 11.8979C11.5523 11.6869 11.8384 11.5684 12.1368 11.5684H20.3868C20.6851 11.5684 20.9713 11.6869 21.1823 11.8979C21.3932 12.1088 21.5118 12.395 21.5118 12.6934C21.5068 15.1782 20.5175 17.5599 18.7604 19.317C17.0033 21.0741 14.6217 22.0634 12.1368 22.0684Z" fill="black"/>
</svg>
