<svg width="25" height="24" viewBox="0 0 25 24" fill="none" xmlns="http://www.w3.org/2000/svg">
<path d="M12.8831 21.375C11.3412 21.3753 9.82308 20.9954 8.46315 20.2688C7.10322 19.5421 5.94349 18.4913 5.08672 17.2094C4.22994 15.9275 3.70257 14.4541 3.55132 12.9196C3.40007 11.3852 3.62962 9.83714 4.21962 8.41261C4.80963 6.98809 5.74187 5.73108 6.93377 4.75294C8.12567 3.77481 9.54042 3.10574 11.0527 2.80503C12.5649 2.50432 14.128 2.58123 15.6035 3.02897C17.0789 3.47671 18.4211 4.28144 19.5112 5.37188C19.6161 5.47639 19.6993 5.60058 19.7561 5.73733C19.8129 5.87408 19.8421 6.02068 19.8421 6.16875C19.8421 6.31682 19.8129 6.46343 19.7561 6.60017C19.6993 6.73692 19.6161 6.86111 19.5112 6.96563C19.2978 7.17295 19.0119 7.28892 18.7144 7.28892C18.4168 7.28892 18.1309 7.17295 17.9175 6.96563C17.2591 6.30043 16.4749 5.77298 15.6105 5.41404C14.7462 5.05511 13.819 4.87186 12.8831 4.875C11.5222 4.87596 10.19 5.26664 9.04417 6.00085C7.89831 6.73506 6.98668 7.78208 6.41712 9.01806C5.84756 10.2541 5.64388 11.6273 5.83019 12.9754C6.01649 14.3235 6.58498 15.59 7.46842 16.6252C8.35186 17.6604 9.51328 18.4209 10.8153 18.8168C12.1174 19.2127 13.5056 19.2275 14.8157 18.8593C16.1259 18.4911 17.3032 17.7554 18.2084 16.7392C19.1136 15.723 19.7089 14.4688 19.9237 13.125H12.8831C12.5847 13.125 12.2986 13.0065 12.0876 12.7955C11.8766 12.5845 11.7581 12.2984 11.7581 12C11.7581 11.7016 11.8766 11.4155 12.0876 11.2045C12.2986 10.9935 12.5847 10.875 12.8831 10.875H21.1331C21.4315 10.875 21.7176 10.9935 21.9286 11.2045C22.1396 11.4155 22.2581 11.7016 22.2581 12C22.2532 14.4849 21.2638 16.8666 19.5068 18.6237C17.7497 20.3807 15.368 21.37 12.8831 21.375Z" fill="black" style="fill:black;fill-opacity:1;"/>
</svg>
